<svg xmlns="http://www.w3.org/2000/svg" viewBox="0 0 360 220" fill="none">
  <defs>
    <linearGradient id="feed" x1="121" y1="24" x2="230" y2="168" gradientUnits="userSpaceOnUse">
      <stop stop-color="#302B3B"/>
      <stop offset="1" stop-color="#211E29"/>
    </linearGradient>
  </defs>
  <path d="M77 48c24-27 62-40 102-35 41 5 75 29 91 62" stroke="#8577EB" stroke-width="2.5" stroke-linecap="round" stroke-dasharray="5 8"/>
  <path d="m261 65 11 12-15 4" stroke="#8577EB" stroke-width="2.5" stroke-linecap="round" stroke-linejoin="round"/>
  <rect x="116" y="20" width="128" height="158" rx="25" fill="url(#feed)" stroke="#8577EB" stroke-width="3"/>
  <rect x="132" y="40" width="96" height="42" rx="12" fill="#5145CD" fill-opacity=".46"/>
  <rect x="144" y="52" width="44" height="7" rx="3.5" fill="#B7AEFF"/>
  <rect x="144" y="66" width="62" height="6" rx="3" fill="#777180"/>
  <rect x="132" y="92" width="43" height="51" rx="12" fill="#E8E5F1"/>
  <path d="M143 105h21l-2 25h-17l-2-25Z" fill="#5145CD" fill-opacity=".25" stroke="#5145CD" stroke-width="2"/>
  <path d="M147 105c0-8 11-8 11 0" stroke="#5145CD" stroke-width="2"/>
  <rect x="184" y="92" width="44" height="51" rx="12" fill="#312C3A"/>
  <path d="M200 103h12l3 29h-18l3-29Z" fill="#9D91FF" fill-opacity=".6" stroke="#B7AEFF" stroke-width="2"/>
  <path d="M198 113h16" stroke="#B7AEFF" stroke-width="2"/>
  <rect x="132" y="152" width="96" height="8" rx="4" fill="#5145CD" fill-opacity=".4"/>
  <path d="M20 204c28-26 66-32 101-17 33 15 50 9 78-5 29-15 62-13 84 6 19 17 36 13 57 4v28H20v-16Z" fill="#302B3B"/>
  <path d="M31 211c25-19 52-22 82-11 29 10 50 9 72 0 28-12 55-12 81 0 24 11 50 8 74-2v22H31v-9Z" fill="#3C354B"/>
  <path d="M45 201v-43c0-13 9-22 22-22h12c13 0 22 9 22 22v43H45Z" fill="#E6E2F0" stroke="#8577EB" stroke-width="3"/>
  <path d="M57 158h32l-3 30H60l-3-30Z" fill="#5145CD" fill-opacity=".2" stroke="#5145CD" stroke-width="2.5"/>
  <path d="M62 158c0-12 19-12 19 0" stroke="#5145CD" stroke-width="2.5"/>
  <path d="M268 205v-51c0-11 8-19 19-19h9c11 0 19 8 19 19v51h-47Z" fill="#CEC8DC" stroke="#9D91FF" stroke-width="3"/>
  <path d="M281 148h15l4 40h-23l4-40Z" fill="#5145CD" fill-opacity=".2" stroke="#5145CD" stroke-width="2.5"/>
  <path d="M277 162h23" stroke="#5145CD" stroke-width="2.5"/>
  <path d="M199 198c9-19 23-28 43-28 10 0 18 5 22 14-13 0-21 5-28 15l-37-1Z" fill="#E8E5F1" stroke="#8577EB" stroke-width="3" stroke-linejoin="round"/>
  <path d="M216 187c10 0 18 3 24 10" stroke="#5145CD" stroke-width="2.5" stroke-linecap="round"/>
  <circle cx="38" cy="57" r="5" fill="#9D91FF"/>
  <circle cx="316" cy="75" r="3" fill="#8577EB"/>
  <circle cx="88" cy="94" r="3" fill="#B7AEFF"/>
</svg>
